<svg id="Capa_1" data-name="Capa 1" xmlns="http://www.w3.org/2000/svg" viewBox="0 0 16.15 13.99"><defs><style>.cls-1{fill:none;stroke:#fff;stroke-miterlimit:10;}.cls-2{fill:#fff;}</style></defs><path class="cls-1" d="M2.75,4.74V12.8a.69.69,0,0,0,.69.69h9.78a.69.69,0,0,0,.69-.69V5"/><path class="cls-2" d="M8.19,11.14s-4-3-2.7-4.7,2.7.31,2.7.31Z"/><path class="cls-2" d="M8.19,11.14s-4-3-2.7-4.7,2.7.31,2.7.31Z"/><path class="cls-2" d="M8.15,11.14s4-3,2.71-4.7-2.71.31-2.71.31Z"/><rect class="cls-2" x="-0.72" y="2.98" width="10.56" height="1.18" rx="0.59" transform="translate(10.35 3.49) rotate(141.19)"/><rect class="cls-2" x="6.57" y="2.96" width="10.62" height="1.18" rx="0.59" transform="translate(4.85 -6.66) rotate(38.81)"/></svg>